# xmcd CD database file
#
# Track frame offsets:
#	150
#	15460
#	38610
#	51985
#	65272
#	77830
#	91777
#	104547
#	116565
#	128970
#	145417
#	158655
#	169537
#	181757
#	193045
#
# Disc length: 2788 seconds
#
# Revision: 2
# Processed by: cddbd v1.5.1PL2 Copyright (c) Steve Scherf et al.
# Submitted via: CDex 1.51
#
DISCID=bd0ae20f
DTITLE=Paul Mauriat - ポール・モーリア・ベスト30 Disc-2
DYEAR=1990
DGENRE=Easy Listening
TTITLE0=フィーリング
TTITLE1=恋のアランフェス
TTITLE2=レット・イット・ビー
TTITLE3=マイ・ウェイ
TTITLE4=この胸のときめきを
TTITLE5=シバの女王
TTITLE6=蒼いノクターン
TTITLE7=ゴッド・ファーザー
TTITLE8=エマニエル夫人
TTITLE9=愛ある限り
TTITLE10=雪が降る
TTITLE11=口笛の鳴る丘
TTITLE12=涙のトッカータ
TTITLE13=ふたりのミュージック
TTITLE14=ペガサスの涙
EXTD=YEAR: 1990
EXTT0=
EXTT1=
EXTT2=
EXTT3=
EXTT4=
EXTT5=
EXTT6=
EXTT7=
EXTT8=
EXTT9=
EXTT10=
EXTT11=
EXTT12=
EXTT13=
EXTT14=
PLAYORDER=
